<svg width="436" height="270" viewBox="0 0 436 270" fill="none" xmlns="http://www.w3.org/2000/svg">
<path d="M27.8721 240.904C27.8721 249.601 28.1694 257.108 28.4667 257.554C29.0614 258.372 37.9066 264.541 38.5756 264.541C38.8729 264.541 39.0216 262.385 39.0216 259.784V254.952L34.9334 252.5C32.7035 251.162 30.8453 249.898 30.8453 249.675C30.8453 249.452 32.6292 248.337 34.8591 247.148L38.8729 244.992L42.8124 247.222L46.8263 249.452L47.1979 254.209C47.5696 258.818 47.6439 258.892 48.6102 257.108C50.0968 254.655 50.1711 241.722 48.8332 239.12C47.4209 236.519 44.0017 234.735 40.1365 234.586L36.7917 234.437V229.755V225.146H32.3319H27.8721V240.904Z" fill="black"/>
<path d="M59.9842 234.807C54.4837 236.071 51.8822 241.868 52.6255 250.862C53.0715 256.437 54.4837 259.039 57.9772 260.525C64.221 263.127 71.5797 260.971 73.6609 255.991C75.1475 252.349 74.9989 243.281 73.3636 240.01C71.2823 235.773 65.4103 233.543 59.9842 234.807Z" fill="black"/>
<path d="M75.5934 236.443C76.2623 237.409 78.0463 240.383 79.6815 243.058L82.7291 247.964L79.0869 253.836C77.08 257.033 75.4447 260.154 75.4447 260.6C75.4447 261.269 76.857 261.567 79.9045 261.567H84.4386L86.1482 257.924L87.7835 254.282L89.5674 257.924L91.277 261.567H96.4058C100.345 261.567 101.386 261.344 101.014 260.6C100.717 260.154 98.8587 257.107 96.8518 253.985C92.6893 247.518 92.615 248.633 98.2641 239.788L101.46 234.808H96.2571H91.1284L89.4931 238.45L87.7835 242.092L86.1482 238.45L84.4386 234.808H79.4585H74.5527L75.5934 236.443Z" fill="black"/>
<path d="M123.057 258.772C121.248 259.63 119.24 260.06 117.033 260.06C113.692 260.06 111.147 259.033 109.4 256.979C107.683 254.925 106.825 251.921 106.825 247.966C106.825 244.073 107.729 241.1 109.538 239.046C111.377 236.961 114.014 235.919 117.447 235.919C119.286 235.919 121.033 236.271 122.689 236.976V237.942C120.88 237.268 119.133 236.93 117.447 236.93C114.381 236.93 112.021 237.865 110.366 239.735C108.741 241.575 107.929 244.242 107.929 247.736V248.242C107.929 251.737 108.726 254.419 110.32 256.289C111.914 258.128 114.213 259.048 117.217 259.048C119.087 259.048 121.033 258.634 123.057 257.806V258.772ZM134.403 259.14C137.346 259.14 139.599 258.19 141.163 256.289C142.757 254.358 143.554 251.599 143.554 248.012C143.554 244.395 142.757 241.636 141.163 239.735C139.599 237.804 137.346 236.839 134.403 236.839C131.46 236.839 129.192 237.804 127.598 239.735C126.034 241.636 125.253 244.38 125.253 247.966C125.253 251.583 126.034 254.358 127.598 256.289C129.192 258.19 131.46 259.14 134.403 259.14ZM134.403 260.151C131.154 260.151 128.625 259.094 126.816 256.979C125.038 254.833 124.149 251.829 124.149 247.966C124.149 244.134 125.038 241.161 126.816 239.046C128.625 236.9 131.154 235.827 134.403 235.827C137.653 235.827 140.166 236.9 141.944 239.046C143.753 241.161 144.657 244.15 144.657 248.012C144.657 251.844 143.753 254.833 141.944 256.979C140.166 259.094 137.653 260.151 134.403 260.151ZM174.344 236.839C172.811 236.839 171.217 237.145 169.562 237.758C167.937 238.371 166.42 239.23 165.01 240.333C165.163 240.916 165.24 241.697 165.24 242.678V259.554H164.228V243C164.228 238.892 162.45 236.839 158.894 236.839C157.453 236.839 155.936 237.145 154.342 237.758C152.748 238.341 151.23 239.168 149.79 240.241V259.554H148.778V236.425H149.698L149.79 239.23C151.261 238.126 152.778 237.283 154.342 236.701C155.936 236.118 157.499 235.827 159.032 235.827C161.944 235.827 163.845 237.053 164.734 239.505C166.236 238.341 167.83 237.436 169.516 236.793C171.202 236.149 172.857 235.827 174.482 235.827C176.475 235.827 178.007 236.409 179.08 237.574C180.153 238.739 180.69 240.44 180.69 242.678V259.554H179.678V243C179.678 238.892 177.9 236.839 174.344 236.839ZM186.04 269.026V236.425H186.959L187.005 239.184C188.354 238.019 189.703 237.176 191.052 236.655C192.401 236.103 193.857 235.827 195.42 235.827C197.321 235.827 199.007 236.317 200.478 237.298C201.95 238.249 203.099 239.628 203.927 241.437C204.754 243.245 205.168 245.361 205.168 247.782C205.168 251.614 204.31 254.603 202.593 256.749C200.877 258.895 198.486 259.968 195.42 259.968C192.569 259.968 189.78 258.879 187.051 256.703V269.026H186.04ZM195.374 258.956C198.164 258.956 200.31 257.99 201.812 256.059C203.314 254.128 204.065 251.369 204.065 247.782C204.065 244.41 203.283 241.743 201.72 239.781C200.187 237.819 198.072 236.839 195.374 236.839C193.872 236.839 192.447 237.114 191.098 237.666C189.78 238.187 188.431 239.03 187.051 240.195V255.737C189.872 257.883 192.646 258.956 195.374 258.956ZM223.592 259.554L223.5 256.565C222.151 257.668 220.695 258.511 219.131 259.094C217.599 259.676 216.051 259.968 214.487 259.968C212.433 259.968 210.793 259.385 209.567 258.22C208.341 257.055 207.728 255.492 207.728 253.53C207.728 251.354 208.464 249.637 209.935 248.38C211.437 247.093 213.476 246.449 216.051 246.449C217.154 246.449 218.396 246.571 219.775 246.817C221.185 247.062 222.427 247.368 223.5 247.736V242.586C223.5 240.624 222.963 239.184 221.89 238.264C220.817 237.314 219.162 236.839 216.924 236.839C214.38 236.839 211.805 237.36 209.199 238.402V237.436C210.364 236.915 211.621 236.517 212.97 236.241C214.349 235.965 215.683 235.827 216.97 235.827C221.998 235.827 224.511 237.973 224.511 242.264V259.554H223.592ZM214.487 258.956C217.737 258.956 220.741 257.791 223.5 255.461V248.702C221.017 247.874 218.534 247.46 216.051 247.46C213.782 247.46 212.004 247.997 210.717 249.07C209.46 250.143 208.831 251.629 208.831 253.53C208.831 255.155 209.337 256.473 210.349 257.485C211.391 258.465 212.771 258.956 214.487 258.956ZM246.77 259.554V243C246.77 238.892 244.808 236.839 240.884 236.839C239.26 236.839 237.558 237.145 235.78 237.758C234.033 238.371 232.393 239.214 230.86 240.287V259.554H229.849V236.425H230.768L230.86 239.276C232.393 238.172 234.033 237.329 235.78 236.747C237.558 236.133 239.306 235.827 241.022 235.827C243.199 235.827 244.869 236.409 246.034 237.574C247.199 238.739 247.782 240.44 247.782 242.678V259.554H246.77ZM258.307 264.152C257.448 266.206 256.575 267.616 255.686 268.382C254.827 269.179 253.77 269.578 252.513 269.578C251.593 269.578 250.75 269.409 249.984 269.072V268.244C250.873 268.49 251.67 268.612 252.375 268.612C253.479 268.612 254.383 268.26 255.088 267.555C255.824 266.85 256.575 265.577 257.341 263.738L259.089 259.554L249.432 236.425H250.628L259.64 258.312L268.653 236.425H269.802L258.307 264.152Z" fill="black"/>
<path d="M18.163 259.553L18.071 256.564C16.7222 257.668 15.2661 258.511 13.7027 259.093C12.1699 259.676 10.6219 259.967 9.05849 259.967C7.00462 259.967 5.36459 259.385 4.1384 258.22C2.9122 257.055 2.29911 255.491 2.29911 253.53C2.29911 251.353 3.03482 249.636 4.50625 248.38C6.00834 247.092 8.04688 246.448 10.6219 246.448C11.7255 246.448 12.967 246.571 14.3464 246.816C15.7566 247.061 16.9981 247.368 18.071 247.736V242.586C18.071 240.624 17.5345 239.183 16.4616 238.263C15.3887 237.313 13.7333 236.838 11.4955 236.838C8.9512 236.838 6.3762 237.359 3.77054 238.401V237.436C4.93542 236.915 6.19227 236.516 7.54108 236.24C8.92054 235.964 10.254 235.826 11.5415 235.826C16.5689 235.826 19.0826 237.972 19.0826 242.264V259.553H18.163ZM9.05849 258.955C12.3079 258.955 15.3121 257.791 18.071 255.461V248.701C15.588 247.874 13.1049 247.46 10.6219 247.46C8.35343 247.46 6.57545 247.996 5.28795 249.069C4.0311 250.142 3.40268 251.629 3.40268 253.53C3.40268 255.154 3.90848 256.472 4.92009 257.484C5.96236 258.465 7.34182 258.955 9.05849 258.955Z" fill="black"/>
<path d="M1.71916 147.894H0V180.569C15.286 194.136 34.7785 200.632 55.7963 200.632C71.6566 200.632 89.6201 196.236 98.9804 183.627C108.154 171.015 107.774 149.994 97.0711 138.53C80.8304 121.331 48.3453 123.815 27.708 112.925C14.3313 105.855 12.0379 94.1973 21.5921 84.2627C31.3365 74.5146 45.2874 72.0309 58.0897 74.1342C74.5243 76.808 85.6075 87.5108 98.4099 106.045L105.48 87.5108C91.7197 76.2375 72.2309 69.9314 52.5482 69.9314C41.6552 69.9314 30.7659 72.2249 21.4019 76.808C11.2734 81.9693 0 91.7136 0 105.09C0 118.657 12.422 126.682 22.7407 131.079C39.7458 138.34 60.3832 138.91 76.4337 146.365C85.9879 150.758 94.2033 160.312 93.6327 171.78C92.8683 191.078 71.4664 197 56.751 197.194C31.3365 197.384 8.78972 177.321 1.71916 147.894Z" fill="black"/>
<path d="M141.784 173.69V154.581C151.148 143.498 163.76 138.341 176.179 133.37C194.332 126.109 216.883 117.129 216.883 94.3882C216.883 75.6639 198.155 69.9321 182.679 69.9321H111.402V71.6513C119.618 71.2672 123.63 76.8088 123.63 97.0658V173.69C123.63 193.947 119.618 199.294 111.402 198.914V200.633H154.016V198.914C145.797 199.294 141.784 193.947 141.784 173.69ZM141.784 73.3705H168.347C181.72 73.3705 198.539 77.3831 198.539 93.6237C198.539 106.81 189.555 115.6 179.621 122.861C167.199 131.841 151.722 139.485 141.784 149.424V73.3705Z" fill="black"/>
<path d="M267.181 69.9321H247.883L205.463 190.699C203.55 196.046 199.922 199.294 193.806 199.104V200.633C202.786 200.633 216.737 200.633 226.101 200.633V199.104C219.985 199.294 216.352 197.765 214.443 192.224C214.059 190.889 213.488 189.36 213.104 188.021C211.959 184.773 212.15 181.905 213.104 178.657L217.117 167.958C221.323 155.92 236.8 162.416 244.251 165.09C259.54 170.061 270.43 167.193 277.12 153.052L290.112 189.934C292.215 196.43 289.158 199.294 282.661 199.104V200.633H321.258V199.104C314.382 199.294 311.134 195.856 309.221 189.934L267.181 69.9321ZM275.971 149.23C268.901 156.875 259.156 152.098 250.366 149.23C237.754 145.027 228.2 146.366 221.514 154.965L249.792 74.8994L275.971 149.23Z" fill="black"/>
<path d="M431.643 87.5116C418.84 76.4284 400.687 69.9321 382.917 69.9321C346.609 69.9321 316.992 98.5948 316.992 135.283C316.992 172.735 345.465 200.633 382.917 200.633C404.129 200.633 424.382 190.889 435.655 170.632L434.32 169.677C427.056 179.806 417.121 186.302 405.848 188.976C377.185 195.856 348.138 178.851 338.204 151.333C329.03 125.919 332.278 87.7018 361.325 77.1929C381.388 69.9321 404.893 76.4284 424.572 106.046L431.643 87.5116Z" fill="black"/>
<path d="M12.3232 54.6679C10.8518 54.6679 9.56429 54.4686 8.46072 54.0701C7.35715 53.6716 6.39152 53.1658 5.56384 52.5527C4.76682 51.9396 4.10774 51.2345 3.58661 50.4375C3.06548 49.6711 2.66697 48.9048 2.39107 48.1384L5.15 47.0348C5.64048 48.5676 6.52947 49.7784 7.81697 50.6674C9.10447 51.5564 10.6066 52.0009 12.3232 52.0009C15.0208 52.0009 17.0594 51.2039 18.4389 49.6098C19.8183 48.0464 20.5081 45.8699 20.5081 43.0804V40.1375H20.2781C19.5731 41.333 18.5155 42.406 17.1054 43.3562C15.7259 44.2759 14.0246 44.7357 12.0013 44.7357C10.5606 44.7357 9.19644 44.4445 7.90893 43.8621C6.65209 43.249 5.53319 42.406 4.55224 41.333C3.57128 40.2601 2.78959 38.9879 2.20714 37.5165C1.65536 36.0451 1.37947 34.451 1.37947 32.7344C1.37947 31.0177 1.65536 29.4236 2.20714 27.9522C2.78959 26.4808 3.57128 25.2086 4.55224 24.1357C5.53319 23.0628 6.65209 22.2351 7.90893 21.6527C9.19644 21.0396 10.5606 20.733 12.0013 20.733C14.0246 20.733 15.7259 21.1928 17.1054 22.1125C18.5155 23.0321 19.5731 24.0897 20.2781 25.2853H20.5081V21.4687H23.3589V43.2643C23.3589 45.1649 23.0677 46.8202 22.4853 48.2304C21.9335 49.6711 21.1518 50.8667 20.1402 51.817C19.1592 52.7673 17.9944 53.4723 16.6455 53.9321C15.2967 54.4226 13.856 54.6679 12.3232 54.6679ZM12.4152 42.0687C13.4575 42.0687 14.4691 41.8695 15.45 41.471C16.4616 41.0418 17.3353 40.4287 18.071 39.6317C18.8374 38.8347 19.4505 37.869 19.9103 36.7348C20.3701 35.5699 20.6 34.2365 20.6 32.7344C20.6 31.2323 20.3701 29.9141 19.9103 28.7799C19.4505 27.615 18.8374 26.6341 18.071 25.837C17.3353 25.04 16.4616 24.4422 15.45 24.0437C14.4691 23.6146 13.4575 23.4 12.4152 23.4C11.3729 23.4 10.3613 23.6146 9.38036 24.0437C8.43007 24.4729 7.57173 25.086 6.80536 25.883C6.06965 26.68 5.47188 27.661 5.01206 28.8259C4.55224 29.9601 4.32232 31.2629 4.32232 32.7344C4.32232 34.1751 4.55224 35.478 5.01206 36.6429C5.47188 37.8077 6.06965 38.7887 6.80536 39.5857C7.57173 40.3827 8.43007 40.9958 9.38036 41.425C10.3613 41.8542 11.3729 42.0687 12.4152 42.0687ZM30.5957 15.9509C29.952 15.9509 29.4002 15.7363 28.9404 15.3071C28.5112 14.8473 28.2966 14.3108 28.2966 13.6977C28.2966 13.054 28.5112 12.5175 28.9404 12.0884C29.4002 11.6285 29.952 11.3986 30.5957 11.3986C31.2088 11.3986 31.73 11.6285 32.1591 12.0884C32.619 12.5175 32.8489 13.054 32.8489 13.6977C32.8489 14.3108 32.619 14.8473 32.1591 15.3071C31.73 15.7363 31.2088 15.9509 30.5957 15.9509ZM29.1243 44V21.4687H32.0672V44H29.1243ZM53.5552 24.1357H43.4391V44H40.4963V24.1357H36.2659V21.4687H40.4963V17.5602C40.4963 16.4567 40.6802 15.4757 41.0481 14.6174C41.4159 13.7591 41.9064 13.0387 42.5195 12.4562C43.1633 11.8738 43.8836 11.4446 44.6807 11.1687C45.4777 10.8622 46.3207 10.7089 47.2097 10.7089C48.0374 10.7089 48.7424 10.8009 49.3249 10.9848C49.938 11.1381 50.4438 11.3373 50.8423 11.5826L50.0146 14.1576C49.6774 13.943 49.2789 13.7744 48.8191 13.6518C48.3899 13.4985 47.8841 13.4219 47.3016 13.4219C46.2594 13.4219 45.3551 13.805 44.5887 14.5714C43.8223 15.3071 43.4391 16.3954 43.4391 17.8361V21.4687H53.5552V14.5714H56.4981V21.4687H62.1079V24.1357H56.4981V37.7004C56.4981 39.0186 56.82 39.9996 57.4637 40.6433C58.0768 41.3177 58.8125 41.6549 59.6709 41.6549C60.1307 41.6549 60.5139 41.6243 60.8204 41.5629C61.1576 41.471 61.5255 41.333 61.924 41.1491L62.8436 43.6781C62.3225 43.9234 61.786 44.092 61.2342 44.1839C60.7131 44.3065 60.0847 44.3679 59.349 44.3679C57.7549 44.3679 56.4061 43.8621 55.3025 42.8504C54.7508 42.3293 54.3216 41.7009 54.015 40.9652C53.7085 40.1988 53.5552 39.2792 53.5552 38.2062V24.1357ZM92.7022 39.9996H92.5183C91.7519 41.3177 90.679 42.4366 89.2995 43.3562C87.9507 44.2759 86.372 44.7357 84.5634 44.7357C83.3372 44.7357 82.203 44.5365 81.1607 44.1379C80.1184 43.7701 79.2141 43.2643 78.4477 42.6205C77.6814 41.9461 77.0836 41.1491 76.6544 40.2295C76.2253 39.3098 76.0107 38.3135 76.0107 37.2406C76.0107 36.0144 76.2559 34.9262 76.7464 33.9759C77.2675 33.0256 77.9573 32.2286 78.8156 31.5848C79.7046 30.9411 80.7162 30.4659 81.8504 30.1594C83.0153 29.8222 84.2415 29.6536 85.529 29.6536C87.0617 29.6536 88.4412 29.8375 89.6674 30.2053C90.8936 30.5426 91.9052 30.9411 92.7022 31.4009V30.0214C92.7022 29.0098 92.5183 28.0902 92.1504 27.2625C91.7826 26.4348 91.2921 25.7297 90.679 25.1473C90.0659 24.5649 89.3302 24.1204 88.4719 23.8138C87.6442 23.5073 86.7705 23.354 85.8509 23.354C84.4714 23.354 83.2452 23.6606 82.1723 24.2736C81.0994 24.8561 80.2104 25.7144 79.5053 26.8486L76.9303 25.2393C77.8193 23.8598 79.0302 22.7716 80.5629 21.9745C82.0957 21.1469 83.8277 20.733 85.7589 20.733C87.261 20.733 88.6098 20.9629 89.8053 21.4228C91.0009 21.8519 92.0278 22.4803 92.8861 23.308C93.7445 24.105 94.4036 25.0707 94.8634 26.2049C95.3232 27.3085 95.5531 28.55 95.5531 29.9295V44H92.7022V39.9996ZM92.7022 33.9759C91.7826 33.4241 90.771 32.9796 89.6674 32.6424C88.5945 32.2745 87.3683 32.0906 85.9888 32.0906C84.9772 32.0906 84.0422 32.2132 83.1839 32.4585C82.3562 32.7037 81.6205 33.0562 80.9768 33.5161C80.3637 33.9452 79.8732 34.4817 79.5053 35.1254C79.1681 35.7692 78.9995 36.4896 78.9995 37.2866C78.9995 38.0223 79.1528 38.6967 79.4594 39.3098C79.7966 39.8923 80.2411 40.3981 80.7928 40.8272C81.3446 41.2257 81.9577 41.5476 82.6321 41.7929C83.3372 42.0074 84.0576 42.1147 84.7933 42.1147C85.8049 42.1147 86.7858 41.9001 87.7361 41.471C88.6864 41.0418 89.5295 40.4594 90.2652 39.7237C91.0009 38.9573 91.5833 38.0836 92.0125 37.1027C92.4723 36.1217 92.7022 35.0795 92.7022 33.9759Z" fill="black"/>
</svg>
